<?xml version="1.0" encoding="UTF-8"?>
<!DOCTYPE svg PUBLIC "-//W3C//DTD SVG 1.1//EN" "http://www.w3.org/Graphics/SVG/1.1/DTD/svg11.dtd">
<svg xmlns="http://www.w3.org/2000/svg" x="0px" y="0px"
     width="24" height="24"
     viewBox="0 0 172 172">
    <g transform="">
        <g fill="none" fill-rule="nonzero" stroke="none" stroke-width="1" stroke-linecap="butt" stroke-linejoin="miter" stroke-miterlimit="10" stroke-dasharray="" stroke-dashoffset="0" font-family="none" font-weight="none" font-size="none" text-anchor="none" style="mix-blend-mode: normal"><path d="M0,172v-172h172v172z" fill="none">

        </path>
            <g fill="#7a80b4">
                <path d="M21.5,21.5v100.33333h43v-14.33333v-14.33333v-14.33333v-14.33333v-14.33333v-14.33333h28.66667v-14.33333zM35.83333,35.83333h14.33333v14.33333h-14.33333zM78.83333,50.16667v100.33333h71.66667v-100.33333zM35.83333,64.5h14.33333v14.33333h-14.33333zM93.16667,64.5h14.33333v14.33333h-14.33333zM121.83333,64.5h14.33333v14.33333h-14.33333zM35.83333,93.16667h14.33333v14.33333h-14.33333zM93.16667,93.16667h14.33333v14.33333h-14.33333zM121.83333,93.16667h14.33333v14.33333h-14.33333zM93.16667,121.83333h14.33333v14.33333h-14.33333zM121.83333,121.83333h14.33333v14.33333h-14.33333z">

                </path>
            </g>
        </g>
    </g>
</svg>
